<?xml version="1.0" encoding="UTF-8"?>
<svg width="1280px" height="82px" viewBox="0 0 1280 82" version="1.1" xmlns="http://www.w3.org/2000/svg" xmlns:xlink="http://www.w3.org/1999/xlink">
    <!-- Generator: Sketch 47.1 (45422) - http://www.bohemiancoding.com/sketch -->
    <title>SVG</title>
    <desc>Created with Sketch.</desc>
    <defs></defs>
    <g id="Welcome" stroke="none" stroke-width="1" fill="none" fill-rule="evenodd">
        <g id="Practical-Stuff/Desktop" transform="translate(0.000000, -469.000000)" fill="#FFFFFF">
            <g id="SVG" transform="translate(0.000000, 469.000000)">
                <path d="M826.331116,82 C837.59256,50.3878315 877.82908,27 925.739257,27 C956.271893,27 983.687969,36.4986745 1002.4741,51.5713018 C1016.58968,23.2681153 1054.54009,3 1099.14057,3 C1155.77691,3 1201.68973,35.6832133 1201.68973,76 C1201.68973,78.0202175 1201.57445,80.021268 1201.34831,82 L826.331116,82 Z M417.996187,82 C417.770052,80.021268 417.654771,78.0202175 417.654771,76 C417.654771,35.6832133 463.567594,3 520.203933,3 C562.701142,3 599.160706,21.401585 614.716201,47.6220372 C633.182182,34.8584786 658.375451,27 686.147123,27 C734.0573,27 774.29382,50.3878315 785.555264,82 L417.996187,82 Z M111.283775,82 C122.545219,50.3878315 162.781739,27 210.691916,27 C258.602092,27 298.838612,50.3878315 310.100056,82 L111.283775,82 Z" id="Combined-Shape" opacity="0.5"></path>
                <path d="M0.229177799,82 C26.4060979,44.824671 73.7110367,20 127.72032,20 C166.224239,20 201.320709,32.6170124 227.783536,53.3312734 C245.170156,46.0700835 264.672101,42 285.273125,42 C296.268985,42 306.951726,43.1595357 317.166815,45.3449479 C347.9786,17.4057096 391.423096,0 439.563001,0 C477.285306,0 512.124514,10.6875395 540.261603,28.7560801 C551.753902,26.301968 563.771061,25 576.13984,25 C608.670186,25 638.768345,34.0058359 663.282678,49.2918772 C689.032841,30.9884797 721.998372,20 757.931537,20 C796.632335,20 831.890749,32.7463696 858.400007,53.6496583 C875.976584,46.1891636 895.745566,42 916.645784,42 C928.269797,42 939.543896,43.2957999 950.285519,45.7295005 C969.500708,29.7931564 995.581155,20 1024.30642,20 C1043.74762,20 1061.97735,24.4858096 1077.68722,32.3258986 C1099.66005,18.294325 1126.82909,10 1156.23792,10 C1211.9877,10 1259.68856,39.8065718 1279.20032,81.9999984 L0.229177799,82 Z" id="Combined-Shape"></path>
            </g>
        </g>
    </g>
</svg>