<?xml version="1.0" encoding="UTF-8"?>
<svg width="76px" height="4px" viewBox="0 0 76 4" version="1.1" xmlns="http://www.w3.org/2000/svg" xmlns:xlink="http://www.w3.org/1999/xlink">
    <!-- Generator: Sketch 47.1 (45422) - http://www.bohemiancoding.com/sketch -->
    <title>Group 4</title>
    <desc>Created with Sketch.</desc>
    <defs></defs>
    <g id="Welcome" stroke="none" stroke-width="1" fill="none" fill-rule="evenodd">
        <g id="Home/Desktop" transform="translate(-678.000000, -1276.000000)">
            <g id="Posts" transform="translate(0.000000, 943.000000)">
                <g id="Left" transform="translate(144.000000, 88.000000)">
                    <g id="Content" transform="translate(0.000000, 80.000000)">
                        <g id="Copy" transform="translate(534.000000, 68.000000)">
                            <g id="H2" transform="translate(0.125000, 0.000000)">
                                <g id="Group-4" transform="translate(0.000000, 97.000000)">
                                    <path d="M42,4 L73,4 C74.1045695,4 75,3.1045695 75,2 C75,0.8954305 74.1045695,0 73,0 L42,0 C40.8954305,0 40,0.8954305 40,2 C40,3.1045695 40.8954305,4 42,4 Z" id="Combined-Shape" fill="#3BE66F" transform="translate(57.500000, 2.000000) scale(-1, 1) translate(-57.500000, -2.000000) "></path>
                                    <path d="M2,4 L33,4 C34.1045695,4 35,3.1045695 35,2 C35,0.8954305 34.1045695,0 33,0 L2,0 C0.8954305,0 0,0.8954305 0,2 C0,3.1045695 0.8954305,4 2,4 Z" id="Combined-Shape" fill="#2F5396" transform="translate(17.500000, 2.000000) scale(-1, 1) translate(-17.500000, -2.000000) "></path>
                                </g>
                            </g>
                        </g>
                    </g>
                </g>
            </g>
        </g>
    </g>
</svg>