<?xml version="1.0" encoding="UTF-8"?>
<svg width="14px" height="12px" viewBox="0 0 14 12" version="1.1" xmlns="http://www.w3.org/2000/svg" xmlns:xlink="http://www.w3.org/1999/xlink">
    <!-- Generator: Sketch 47.1 (45422) - http://www.bohemiancoding.com/sketch -->
    <title>Combined Shape</title>
    <desc>Created with Sketch.</desc>
    <defs></defs>
    <g id="Welcome" stroke="none" stroke-width="1" fill="none" fill-rule="evenodd">
        <g id="Article/Desktop" transform="translate(-293.000000, -3464.000000)" fill="#2F5396">
            <g id="Related-Posts" transform="translate(0.000000, 3412.000000)">
                <g id="Previous-Post" transform="translate(248.000000, 5.000000)">
                    <g id="Data" transform="translate(40.000000, 40.000000)">
                        <path d="M17.8920983,15.2334723 C17.8920983,15.5227516 17.6485446,15.7586063 17.3494111,15.7586063 L11.0840423,15.7586063 L8.8497738,17.9331149 L8.8497738,15.7586063 L6.6505889,15.7586063 C6.35145544,15.7586063 6.10790171,15.5227516 6.10790171,15.2334723 L6.10790171,8.59720071 C6.10790171,8.3077427 6.35145544,8.07206671 6.6505889,8.07206671 L17.3494111,8.07206671 C17.6485446,8.07206671 17.8920983,8.3077427 17.8920983,8.59720071 L17.8920983,15.2334723 Z M17.3494111,7 C18.2595524,7 19,7.71649792 19,8.59720071 L19,15.2334723 C19,16.1143538 18.2595524,16.830673 17.3494111,16.830673 L11.5438215,16.830673 L9.62899801,18.6837403 C9.4277292,18.8820727 9.1398594,19 8.84423429,19 C8.23691951,19 7.74187209,18.5209649 7.74187209,17.9331149 L7.74187209,16.830673 L6.6505889,16.830673 C5.74026299,16.830673 5,16.1143538 5,15.2334723 L5,8.59720071 C5,7.71649792 5.74026299,7 6.6505889,7 L17.3494111,7 Z M10,11.9985418 C10,11.4468873 9.55316285,11 9.0013459,11 C8.44952894,11 8,11.4468873 8,11.9985418 C8,12.550645 8.44952894,13 9.0013459,13 C9.55316285,13 10,12.550645 10,11.9985418 Z M13,11.9985418 C13,11.4468873 12.5531629,11 12.0013459,11 C11.4495289,11 11,11.4468873 11,11.9985418 C11,12.550645 11.4495289,13 12.0013459,13 C12.5531629,13 13,12.550645 13,11.9985418 Z M16,11.9985418 C16,11.4468873 15.5525104,11 14.9998877,11 C14.447265,11 14,11.4468873 14,11.9985418 C14,12.550645 14.447265,13 14.9998877,13 C15.5525104,13 16,12.550645 16,11.9985418 Z" id="Combined-Shape"></path>
                    </g>
                </g>
            </g>
        </g>
    </g>
</svg>