<?xml version="1.0" encoding="UTF-8"?>
<svg width="14px" height="12px" viewBox="0 0 14 12" version="1.1" xmlns="http://www.w3.org/2000/svg" xmlns:xlink="http://www.w3.org/1999/xlink">
    <!-- Generator: Sketch 47.1 (45422) - http://www.bohemiancoding.com/sketch -->
    <title>Combined Shape</title>
    <desc>Created with Sketch.</desc>
    <defs></defs>
    <g id="Welcome" stroke="none" stroke-width="1" fill="none" fill-rule="evenodd">
        <g id="Article/Desktop" transform="translate(-843.000000, -3464.000000)" fill="#FF3F6E">
            <g id="Related-Posts" transform="translate(0.000000, 3412.000000)">
                <g id="Next-Post" transform="translate(648.000000, 5.000000)">
                    <g id="Data" transform="translate(40.000000, 40.000000)">
                        <g id="Page-1" transform="translate(155.000000, 7.000000)">
                            <path d="M12.8920983,8.2334723 C12.8920983,8.52275164 12.6485446,8.75860631 12.3494111,8.75860631 L6.08404226,8.75860631 L3.8497738,10.9331149 L3.8497738,8.75860631 L1.6505889,8.75860631 C1.35145544,8.75860631 1.10790171,8.52275164 1.10790171,8.2334723 L1.10790171,1.59720071 C1.10790171,1.3077427 1.35145544,1.07206671 1.6505889,1.07206671 L12.3494111,1.07206671 C12.6485446,1.07206671 12.8920983,1.3077427 12.8920983,1.59720071 L12.8920983,8.2334723 Z M12.3494111,0 C13.2595524,0 14,0.716497915 14,1.59720071 L14,8.2334723 C14,9.11435378 13.2595524,9.83067302 12.3494111,9.83067302 L6.54382147,9.83067302 L4.62899801,11.6837403 C4.4277292,11.8820727 4.1398594,12 3.84423429,12 C3.23691951,12 2.74187209,11.5209649 2.74187209,10.9331149 L2.74187209,9.83067302 L1.6505889,9.83067302 C0.740262995,9.83067302 0,9.11435378 0,8.2334723 L0,1.59720071 C0,0.716497915 0.740262995,0 1.6505889,0 L12.3494111,0 Z M5,4.99854178 C5,4.44688727 4.55316285,4 4.0013459,4 C3.44952894,4 3,4.44688727 3,4.99854178 C3,5.55064498 3.44952894,6 4.0013459,6 C4.55316285,6 5,5.55064498 5,4.99854178 Z M8,4.99854178 C8,4.44688727 7.55316285,4 7.0013459,4 C6.44952894,4 6,4.44688727 6,4.99854178 C6,5.55064498 6.44952894,6 7.0013459,6 C7.55316285,6 8,5.55064498 8,4.99854178 Z M11,4.99854178 C11,4.44688727 10.5525104,4 9.99988768,4 C9.44726497,4 9,4.44688727 9,4.99854178 C9,5.55064498 9.44726497,6 9.99988768,6 C10.5525104,6 11,5.55064498 11,4.99854178 Z" id="Combined-Shape"></path>
                        </g>
                    </g>
                </g>
            </g>
        </g>
    </g>
</svg>