<?xml version="1.0" encoding="UTF-8"?>
<svg width="58px" height="56px" viewBox="0 0 58 56" version="1.1" xmlns="http://www.w3.org/2000/svg" xmlns:xlink="http://www.w3.org/1999/xlink">
    <!-- Generator: Sketch 47.1 (45422) - http://www.bohemiancoding.com/sketch -->
    <title>Combined Shape</title>
    <desc>Created with Sketch.</desc>
    <defs></defs>
    <g id="Welcome" stroke="none" stroke-width="1" fill="none" fill-rule="evenodd">
        <g id="Home/Desktop" transform="translate(-617.000000, -4873.000000)" fill="#FFFFFF">
            <g id="Stats" transform="translate(46.000000, 4057.000000)">
                <g id="Middle" transform="translate(408.000000, 0.000000)">
                    <g id="Books" transform="translate(0.000000, 759.000000)">
                        <g id="Box">
                            <g id="Image">
                                <path d="M217.751883,80.2026835 C219.458883,80.2026835 221.673883,82.0146835 220.267883,84.9666835 L207.827883,103.664684 C206.890883,105.044684 205.548883,105.111684 204.916883,105.111684 L204.912883,105.111684 L197.608883,105.111684 L197.608883,111.025684 C197.608883,111.743684 197.281883,112.289684 196.635883,112.621684 C196.353883,112.765684 196.044883,112.836684 195.735883,112.836684 C195.345883,112.836684 194.954883,112.720684 194.619883,112.490684 L188.923883,108.658684 L183.356883,112.490684 C182.763883,112.899684 181.984883,112.950684 181.341883,112.620684 C180.698883,112.289684 180.292883,111.743684 180.292883,111.025684 L180.292883,96.2706835 C180.292883,92.7996835 182.253883,90.7046835 183.411883,90.0356835 C183.710883,89.8626835 184.049883,89.7716835 184.393883,89.7716835 L199.632883,89.7716835 C197.579883,91.8036835 197.556883,95.4916835 197.556883,97.4396835 L203.092883,97.4396835 L216.213883,80.2026835 L217.751883,80.2026835 Z M174.591683,97.0756835 C175.075683,97.2596835 175.903683,97.3686835 176.418683,97.4396835 L176.418683,105.111684 C173.181683,104.914684 165.155683,102.102684 163.339683,93.8336835 C162.848683,91.7406835 162.904683,89.5466835 163.412683,87.4606835 C164.824683,78.1476835 178.145683,63.0726835 180.499683,61.3086835 C182.070683,60.0366835 183.829683,58.9866835 185.648683,58.4716835 C188.539683,57.3426835 205.160683,56.1296835 215.792683,57.8816835 C219.048683,58.4156835 219.275683,61.3636835 218.225683,62.6986835 C218.225683,62.6986835 203.145683,82.4616835 202.976683,82.5956835 C202.314683,83.3826835 201.324683,83.8936835 200.208683,83.8936835 L177.229683,83.8936835 C174.719683,83.8936835 169.243683,86.2666835 170.409683,92.2686835 C170.841683,94.5036835 172.432683,96.2896835 174.591683,97.0756835 Z" id="Combined-Shape"></path>
                            </g>
                        </g>
                    </g>
                </g>
            </g>
        </g>
    </g>
</svg>