<?xml version="1.0" encoding="UTF-8"?>
<svg width="58px" height="54px" viewBox="0 0 58 54" version="1.1" xmlns="http://www.w3.org/2000/svg" xmlns:xlink="http://www.w3.org/1999/xlink">
    <!-- Generator: Sketch 47.1 (45422) - http://www.bohemiancoding.com/sketch -->
    <title>Fill 2</title>
    <desc>Created with Sketch.</desc>
    <defs></defs>
    <g id="Welcome" stroke="none" stroke-width="1" fill="none" fill-rule="evenodd">
        <g id="Home/Desktop" transform="translate(-617.000000, -4115.000000)" fill="#FFFFFF">
            <g id="Stats" transform="translate(46.000000, 4057.000000)">
                <g id="Middle" transform="translate(408.000000, 0.000000)">
                    <g id="Distance">
                        <g id="Box">
                            <g id="Image">
                                <path d="M182.229,88.3224542 C181.063,87.4384542 178.491,85.2684542 175.018,85.2684542 C172.942,85.2714542 170.605,84.8014542 168.778,84.2044542 L168.778,65.2844542 L181.313,70.6994542 C182.405,72.7374542 183.683,73.3504542 184.168,75.0164542 C185.204,78.5744542 182.761,80.1204542 182.255,78.9544542 C181.325,76.8074542 177.876,77.3024542 176.199,77.8444542 C173.663,78.6684542 172.634,80.2514542 174.553,81.1054542 C176.477,81.9594542 175.934,81.6914542 176.479,81.1054542 C177.023,80.5184542 177.651,80.3114542 178.267,80.8424542 C178.882,81.3724542 180.349,81.7144542 180.522,83.0304542 C180.705,84.3464542 180.77,84.9674542 182.255,84.9564542 C184.057,84.9414542 183.525,84.4754542 184.76,84.7944542 C185.983,85.1184542 187.205,84.4754542 188.167,84.4674542 C189.135,84.4564542 190.975,85.6064542 190.975,85.6064542 C193.784,85.9074542 194.722,86.0694542 195.596,86.6414542 C196.473,87.2134542 197.524,89.2064542 197.524,90.7814542 C197.524,92.2034542 197.095,93.2294542 195.415,94.6174542 C194.478,95.3914542 194.128,96.2384542 193.276,97.9004542 C192.54,99.3414542 192.17,100.044454 190.223,102.218454 C188.446,104.211454 187.997,102.545454 187.613,101.657454 C187.229,100.773454 186.904,97.9714542 186.904,97.9714542 C186.904,97.9714542 186.552,96.2044542 184.738,95.9114542 C180.223,95.1824542 182.229,88.3224542 182.229,88.3224542 M212.266,94.5464542 C211.072,94.4784542 210.04,93.1954542 209.926,92.9214542 C209.475,91.8384542 208.719,87.8704542 208.829,86.6784542 C209.229,82.3124542 208.137,81.8094542 204.655,81.1464542 C203.201,80.8724542 201.12,80.5784542 200.045,79.3114542 C196.329,74.9294542 196.595,72.3654542 199.95,69.5524542 C201.136,68.5594542 203.682,67.4424542 205.485,66.6684542 L214.989,70.7294542 L214.989,92.6284542 C213.889,93.8614542 212.749,94.6024542 212.266,94.5464542 M219.012,66.1644542 L200.446,58.2324542 C199.982,58.0374542 199.485,57.9804542 198.999,58.0334542 C198.964,58.0374542 198.934,58.0454542 198.903,58.0484542 C198.57,58.0934542 198.243,58.1834542 197.938,58.3454542 L184.317,65.7054542 L167.034,58.2364542 C166.145,57.8524542 165.118,57.9394542 164.302,58.4734542 C163.49,59.0074542 163,59.9174542 163,60.8874542 L163,101.003454 C163,102.153454 163.685,103.195454 164.745,103.654454 L183.311,111.676454 C183.677,111.834454 184.067,111.912454 184.456,111.912454 C184.929,111.912454 185.401,111.796454 185.829,111.566454 L199.458,104.207454 L216.743,111.589454 C217.632,111.968454 218.657,111.879454 219.467,111.344454 C220.278,110.810454 220.765,109.904454 220.765,108.934454 L220.765,78.6904542 L220.765,68.8224542 C220.765,67.6644542 220.075,66.6194542 219.012,66.1644542" id="Fill-2"></path>
                            </g>
                        </g>
                    </g>
                </g>
            </g>
        </g>
    </g>
</svg>