<?xml version="1.0" encoding="UTF-8"?>
<svg width="60px" height="60px" viewBox="0 0 60 60" version="1.1" xmlns="http://www.w3.org/2000/svg" xmlns:xlink="http://www.w3.org/1999/xlink">
    <!-- Generator: Sketch 47.1 (45422) - http://www.bohemiancoding.com/sketch -->
    <title>Minimum Tº</title>
    <desc>Created with Sketch.</desc>
    <defs></defs>
    <g id="Welcome" stroke="none" stroke-width="1" fill="none" fill-rule="evenodd">
        <g id="Home/Desktop" transform="translate(-917.000000, -4110.000000)" fill="#FFFFFF">
            <g id="Stats" transform="translate(46.000000, 4057.000000)">
                <g id="Right" transform="translate(808.000000, 0.000000)">
                    <g id="Tª" transform="translate(2.000000, 0.000000)">
                        <g id="Minimum-Tº">
                            <g id="Group-4" transform="translate(57.000000, 47.000000)">
                                <path d="M48.9956179,31.5516386 L43.9393354,33.3544805 L45.9341912,38.9493996 C46.2139687,39.7400749 45.8034257,40.6098177 45.0127504,40.8926362 L39.3252043,42.9212996 L41.1320032,47.9877938 L47.8415434,49.6651788 C48.6595882,49.8689298 49.1522398,50.6960978 48.9515299,51.5080605 C48.7477789,52.3261054 47.923652,52.8126748 47.1056071,52.615006 L42.358313,51.4265225 L44.9865973,58.7965664 C45.2663747,59.5872417 44.8558318,60.4569846 44.0651564,60.739803 C43.8948571,60.8006242 43.7245578,60.8279937 43.5542585,60.8279937 C42.9308415,60.8279937 42.3439171,60.4387382 42.1219198,59.8183622 L39.4933048,52.4461018 L36.5713791,56.3737548 C36.2733553,56.7751745 35.8141554,56.9850076 35.3519145,56.9850076 C35.0356443,56.9850076 34.7163332,56.8876937 34.4426379,56.6839428 C33.7675228,56.1821681 33.6306751,55.2303166 34.1324499,54.5552015 L38.2648708,49.0008138 L36.4614027,43.9427752 L30.7745126,45.9712046 C30.6102954,46.0289847 30.4369551,46.0593953 30.2636147,46.0593953 C30.0416174,46.0593953 29.8196201,46.0076973 29.6128281,45.9134245 C29.247901,45.737043 28.9681236,45.4298961 28.834317,45.0497637 L26.8387887,39.4517628 L21.8034375,41.2471416 L20.1514857,47.8469297 C19.9811864,48.5402911 19.3608103,48.999491 18.6765721,48.999491 C18.5549297,48.999491 18.4332874,48.9842857 18.308604,48.9538752 C17.4905591,48.7501242 16.9979076,47.9229562 17.2016585,47.1109935 L18.3619303,42.4742276 L11.0532456,45.0801743 C10.8829463,45.1409955 10.712647,45.168365 10.5423477,45.168365 C9.91893067,45.168365 9.3320063,44.7791095 9.110009,44.1587335 C8.83023158,43.3680582 9.24077453,42.4983153 10.0314498,42.2154968 L17.463922,39.5658766 L13.4429097,36.5767654 C12.7708357,36.0749907 12.630947,35.1231393 13.1327217,34.4480242 C13.6405786,33.7698681 14.59243,33.6421436 15.2614629,34.1347951 L20.9075869,38.3382361 L25.8178541,36.5877629 L23.7587897,30.811526 C23.4759713,30.0208506 23.8895553,29.1511078 24.6771895,28.8713304 L30.3647127,26.8438899 L28.5682085,21.8053821 L21.9663896,20.1562638 C21.1544269,19.9525128 20.6587343,19.1253448 20.8594442,18.3133821 C21.0601541,17.4983783 21.8751578,17.0087678 22.7023259,17.2033956 L27.3418745,18.3659839 L24.7361861,11.0580238 C24.4533676,10.2673484 24.8639105,9.39760559 25.6545858,9.11478712 C26.4483022,8.8198044 27.3180451,9.24859371 27.5978225,10.036228 L30.2490551,17.4706219 L33.239595,13.4476878 C33.7474518,12.7725728 34.6993032,12.6387662 35.3683362,13.1374998 C36.0434513,13.6392745 36.18334,14.591126 35.6815653,15.2662411 L31.4769854,20.9138947 L33.2277617,25.8232943 L38.9154273,23.7958031 C39.7152258,23.5038614 40.5788865,23.9265686 40.8586639,24.7142029 L42.9185447,30.4914957 L47.9834692,28.6858884 L49.6610089,21.9757293 C49.8617188,21.1576845 50.6828047,20.6619919 51.5038906,20.8657428 C52.3219355,21.0725348 52.814587,21.8966618 52.6108361,22.7116656 L51.4220798,27.4600496 L58.7917883,24.8328042 C59.5855047,24.5408625 60.4552475,24.9605286 60.7350249,25.7512039 C61.0178434,26.5418793 60.6042594,27.4116221 59.8135841,27.6944406 L52.4409058,30.3232046 L56.3695849,33.2458936 C57.0446999,33.7476683 57.1815476,34.6995198 56.6797729,35.3746348 C56.3817491,35.7760546 55.9225492,35.9858877 55.4603083,35.9858877 C55.1440381,35.9858877 54.8247269,35.8885738 54.5510316,35.6848228 L48.9956179,31.5516386 Z M28.6800753,35.5674026 L32.9343644,34.0507806 L31.3851836,29.7059206 L27.1313241,31.2220689 L28.6800753,35.5674026 Z M29.7008151,38.4312935 L31.1850556,42.5956292 L35.4399448,41.0779762 L33.9553701,36.9143114 L29.7008151,38.4312935 Z M40.0537321,31.5127798 L38.5048843,27.1683374 L34.2484402,28.6854069 L35.7977932,33.0299899 L40.0537321,31.5127798 Z M41.0744897,34.375955 L36.8189009,35.8933057 L38.3035885,40.0565589 L42.5586159,38.5388566 L41.0744897,34.375955 Z" id="Combined-Shape" transform="translate(34.923119, 34.924629) rotate(63.000000) translate(-34.923119, -34.924629) "></path>
                            </g>
                        </g>
                    </g>
                </g>
            </g>
        </g>
    </g>
</svg>