<?xml version="1.0" encoding="UTF-8"?>
<svg width="44px" height="54px" viewBox="0 0 44 54" version="1.1" xmlns="http://www.w3.org/2000/svg" xmlns:xlink="http://www.w3.org/1999/xlink">
    <!-- Generator: Sketch 47.1 (45422) - http://www.bohemiancoding.com/sketch -->
    <title>Combined Shape</title>
    <desc>Created with Sketch.</desc>
    <defs></defs>
    <g id="Welcome" stroke="none" stroke-width="1" fill="none" fill-rule="evenodd">
        <g id="Home/Desktop" transform="translate(-522.000000, -4591.000000)" fill="#4A4A4A">
            <g id="Stats" transform="translate(46.000000, 4057.000000)">
                <g id="Middle" transform="translate(408.000000, 0.000000)">
                    <g id="Transport" transform="translate(2.000000, 480.000000)">
                        <g id="Overland">
                            <g id="icon" transform="translate(66.000000, 54.000000)">
                                <path d="M28.8318316,2.7575 L14.6225158,2.7575 C14.0650947,2.7575 13.6078842,2.2475 13.6078842,1.6235 C13.6078842,0.9995 14.0650947,0.4885 14.6225158,0.4885 L28.8318316,0.4885 C29.3901474,0.4885 29.8473579,0.9995 29.8473579,1.6235 C29.8473579,2.2475 29.3901474,2.7575 28.8318316,2.7575 Z M7.25825833,53.459537 C3.249675,53.459537 9.16666668e-05,50.1762037 9.16666668e-05,46.1280556 L9.16666668e-05,11.3993519 C9.16666668e-05,7.35027778 3.249675,4.06787037 7.25825833,4.06787037 L36.2918417,4.06787037 C40.2995083,4.06787037 43.5500083,7.35027778 43.5500083,11.3993519 L43.5500083,46.1280556 C43.5500083,50.1762037 40.2995083,53.459537 36.2918417,53.459537 L7.25825833,53.459537 Z M38.7100083,11.3993519 C38.7100083,10.0484259 37.627425,8.95398148 36.2918417,8.95398148 L7.25825833,8.95398148 C5.92175833,8.95398148 4.83825833,10.0484259 4.83825833,11.3993519 L4.83825833,21.6910185 C4.83825833,23.0382407 5.92175833,24.134537 7.25825833,24.134537 L36.2918417,24.134537 C37.627425,24.134537 38.7100083,23.0400926 38.7100083,21.6910185 L38.7100083,11.3993519 Z M17.3122557,38.4481782 C17.3122557,35.6858758 14.8326247,33.4466578 11.7743956,33.4466578 C8.71616657,33.4466578 6.23601101,35.6858758 6.23601101,38.4481782 C6.23601101,41.2109544 8.71616657,43.45112 11.7743956,43.45112 C14.8326247,43.45112 17.3122557,41.2109544 17.3122557,38.4481782 Z M15.4148947,38.6305944 C15.4148947,40.4490706 13.7824403,41.9226144 11.7701991,41.9226144 C9.7579578,41.9226144 8.12550347,40.4490706 8.12550347,38.6305944 C8.12550347,36.8121181 9.7579578,35.3390481 11.7701991,35.3390481 C13.7824403,35.3390481 15.4148947,36.8121181 15.4148947,38.6305944 Z M37.3122557,38.4481782 C37.3122557,35.6858758 34.8326247,33.4466578 31.7743956,33.4466578 C28.7161666,33.4466578 26.236011,35.6858758 26.236011,38.4481782 C26.236011,41.2109544 28.7161666,43.45112 31.7743956,43.45112 C34.8326247,43.45112 37.3122557,41.2109544 37.3122557,38.4481782 Z M35.4148947,38.6305944 C35.4148947,40.4490706 33.7824403,41.9226144 31.7701991,41.9226144 C29.7579578,41.9226144 28.1255035,40.4490706 28.1255035,38.6305944 C28.1255035,36.8121181 29.7579578,35.3390481 31.7701991,35.3390481 C33.7824403,35.3390481 35.4148947,36.8121181 35.4148947,38.6305944 Z" id="Combined-Shape"></path>
                            </g>
                        </g>
                    </g>
                </g>
            </g>
        </g>
    </g>
</svg>