<?xml version="1.0" encoding="UTF-8"?>
<svg width="59px" height="64px" viewBox="0 0 59 64" version="1.1" xmlns="http://www.w3.org/2000/svg" xmlns:xlink="http://www.w3.org/1999/xlink">
    <!-- Generator: Sketch 47.1 (45422) - http://www.bohemiancoding.com/sketch -->
    <title>Fill 1</title>
    <desc>Created with Sketch.</desc>
    <defs></defs>
    <g id="Welcome" stroke="none" stroke-width="1" fill="none" fill-rule="evenodd">
        <g id="Home/Desktop" transform="translate(-210.000000, -4356.000000)" fill="#FFFFFF">
            <g id="Stats" transform="translate(46.000000, 4057.000000)">
                <g id="Left" transform="translate(1.000000, 246.000000)">
                    <g id="Music">
                        <g id="Box">
                            <g id="Image">
                                <path d="M208.793143,111.443 C208.793143,111.443 194.262143,111.443 197.895143,101 C201.527143,90.554 213.596143,94.189 213.596143,94.189 L213.589143,68.625 L187.194143,73.996 L187.194143,102.722 C187.194143,116.154 174.480143,116.345 174.480143,116.345 C174.480143,116.345 159.950143,116.345 163.583143,105.902 C167.215143,95.457 179.284143,99.091 179.284143,99.091 L179.279143,75.607 L179.276143,75.607 L179.276143,61.027 L221.507143,53 L221.507143,60.918 L221.507143,67.013 L221.507143,70.156 L221.507143,97.824 C221.507143,111.256 208.793143,111.443 208.793143,111.443" id="Fill-1"></path>
                            </g>
                        </g>
                    </g>
                </g>
            </g>
        </g>
    </g>
</svg>